<?xml version="1.0" standalone="no"?>
<!DOCTYPE svg PUBLIC "-//W3C//DTD SVG 20010904//EN"
 "http://www.w3.org/TR/2001/REC-SVG-20010904/DTD/svg10.dtd">
<svg version="1.0" xmlns="http://www.w3.org/2000/svg"
 width="1024.000000pt" height="1024.000000pt" viewBox="0 0 1024.000000 1024.000000"
 preserveAspectRatio="xMidYMid meet">
<metadata>
Created by potrace 1.11, written by Peter Selinger 2001-2013
</metadata>
<g transform="translate(0.000000,1024.000000) scale(0.100000,-0.100000)"
fill="#000000" stroke="none">
<path d="M2260 10191 c0 -9 13 -91 28 -182 l28 -166 -23 -29 c-19 -24 -75
-110 -118 -182 -71 -119 -132 -224 -174 -302 -61 -111 -383 -755 -425 -850
-16 -36 -48 -105 -71 -155 -148 -314 -406 -916 -566 -1320 -55 -137 -104 -259
-109 -270 -41 -87 -280 -747 -395 -1090 -248 -742 -393 -1317 -411 -1635 -20
-337 118 -474 656 -656 85 -28 156 -51 157 -50 1 1 -2 28 -7 61 -9 56 -6 605
3 670 3 17 8 62 11 100 14 138 15 150 20 185 3 19 8 53 11 75 3 22 7 54 10 70
6 40 16 105 19 130 8 55 55 326 71 405 3 14 8 39 11 55 4 26 69 329 80 378 2
9 6 25 8 35 2 11 16 68 31 128 15 60 28 118 31 129 15 76 186 711 243 905 178
604 457 1415 576 1674 7 17 25 58 38 91 88 212 218 480 311 642 33 57 61 102
62 100 1 -1 5 -92 9 -202 3 -110 8 -227 10 -260 2 -33 6 -125 10 -205 3 -80 8
-167 10 -195 2 -27 7 -99 10 -160 11 -213 25 -421 30 -470 2 -22 7 -76 10
-120 12 -173 16 -231 20 -260 2 -16 7 -66 10 -110 3 -44 8 -96 10 -115 2 -19
7 -66 10 -105 4 -38 8 -81 10 -95 4 -25 11 -88 20 -182 3 -29 7 -69 10 -88 2
-19 7 -57 10 -85 3 -27 8 -66 10 -85 3 -19 7 -57 10 -85 3 -27 8 -61 10 -75 2
-14 9 -63 15 -110 6 -47 15 -114 20 -150 5 -36 12 -81 14 -100 10 -73 36 -246
41 -270 3 -14 7 -45 10 -70 4 -25 10 -67 15 -95 5 -27 12 -66 14 -85 3 -19 7
-44 10 -55 2 -11 7 -40 11 -65 4 -25 9 -54 11 -65 8 -40 13 -71 19 -110 4 -22
15 -83 25 -135 21 -108 49 -253 56 -290 2 -14 9 -45 14 -70 6 -25 12 -54 14
-65 3 -11 12 -54 21 -95 119 -543 164 -722 197 -770 36 -53 111 -116 190 -159
102 -54 304 -117 443 -137 17 -3 39 -6 50 -9 53 -11 194 -20 328 -20 l149 0 4
80 c5 109 14 241 19 264 2 11 6 55 10 98 3 43 10 105 15 138 5 33 12 80 15
105 3 25 7 56 10 70 3 14 7 44 10 68 3 24 7 53 10 65 2 12 7 40 10 62 8 56 34
211 45 270 6 28 24 122 41 210 17 88 33 169 36 180 2 11 6 31 9 45 12 60 67
306 95 425 17 72 32 137 34 145 6 29 126 496 140 545 8 28 21 75 29 105 17 60
87 302 136 470 46 159 135 434 202 630 33 96 71 209 85 250 14 41 29 80 33 85
4 6 13 28 20 50 20 62 141 363 215 535 77 176 208 443 284 574 28 49 51 91 51
93 0 2 8 16 19 31 10 15 52 79 93 142 105 161 199 276 314 380 47 43 149 111
192 129 18 8 32 17 32 21 0 17 -103 151 -166 216 -125 128 -269 227 -427 294
-109 47 -143 52 -188 30 -230 -118 -558 -883 -988 -2305 -30 -98 -94 -319
-106 -365 -3 -8 -18 -64 -35 -125 -18 -60 -46 -166 -65 -235 -18 -69 -40 -150
-49 -181 -9 -31 -18 -65 -21 -75 -2 -11 -24 -98 -48 -194 -45 -178 -166 -670
-172 -703 -2 -10 -25 -109 -50 -220 -26 -111 -48 -209 -50 -217 -2 -8 -22
-100 -44 -205 -23 -104 -43 -199 -45 -210 -3 -11 -11 -52 -20 -90 -8 -39 -17
-82 -20 -95 -12 -64 -28 -139 -36 -175 -5 -22 -15 -67 -21 -100 -10 -51 -13
-56 -20 -37 -7 19 -83 303 -94 352 -2 8 -13 53 -24 100 -27 116 -91 424 -104
505 -3 17 -10 62 -16 100 -7 39 -14 81 -16 95 -3 14 -9 61 -15 105 -6 44 -13
91 -15 105 -5 36 -13 106 -20 175 -3 33 -8 71 -10 85 -3 14 -7 63 -11 110 -3
47 -7 101 -9 120 -2 19 -6 80 -10 135 -3 55 -8 125 -10 155 -4 49 -7 110 -20
335 -28 487 -28 1643 0 2011 2 27 6 88 10 135 6 94 14 182 20 219 2 14 7 50
10 80 4 30 9 62 10 72 17 88 16 104 -4 130 -47 59 -275 182 -521 280 -141 56
-440 154 -528 173 -199 43 -252 48 -252 26z"/>
<path d="M8788 6995 c-2 -1 -37 -5 -78 -9 -566 -49 -1178 -309 -1690 -715 -95
-76 -108 -87 -230 -196 -62 -56 -262 -256 -326 -326 -122 -136 -303 -370 -410
-532 -41 -62 -77 -117 -81 -123 -5 -5 -14 -21 -22 -35 -8 -13 -42 -71 -76
-129 -65 -111 -215 -407 -254 -500 -112 -271 -164 -413 -226 -625 -68 -234
-124 -479 -149 -655 -34 -248 -42 -323 -51 -480 -6 -100 -6 -482 -1 -545 3
-27 8 -86 11 -129 4 -44 8 -87 10 -96 2 -9 6 -41 10 -71 30 -248 117 -543 226
-759 140 -279 311 -478 561 -654 65 -45 263 -152 323 -174 17 -6 57 -20 90
-33 85 -31 270 -79 365 -95 80 -13 85 -14 220 -30 19 -2 99 -6 176 -10 l142
-6 96 51 c213 116 453 291 731 535 167 147 551 540 744 761 184 212 420 506
427 533 10 37 -63 173 -93 172 -8 0 -43 -30 -133 -113 -25 -23 -79 -71 -120
-107 -41 -36 -79 -70 -85 -76 -9 -9 -251 -214 -280 -237 -5 -4 -53 -42 -105
-83 -457 -367 -936 -667 -1246 -782 -162 -60 -173 -61 -243 -40 -169 52 -329
199 -440 403 -83 151 -155 379 -177 555 -3 24 -7 47 -9 50 -26 42 -26 798 0
962 2 12 6 54 10 91 3 37 8 76 10 85 1 9 6 40 9 67 4 28 11 75 16 105 5 30 12
71 15 90 3 19 11 55 16 80 6 25 13 59 16 75 10 62 76 316 120 459 71 232 176
517 254 684 16 35 29 66 29 68 0 8 181 368 225 449 82 150 233 398 345 565
101 151 231 334 250 350 3 3 42 48 87 100 233 273 517 498 819 648 84 42 254
105 314 116 19 3 46 9 60 12 14 4 79 8 146 9 305 8 459 -95 483 -320 22 -198
-79 -440 -293 -705 -63 -78 -216 -235 -300 -308 l-49 -42 17 -61 c20 -74 72
-179 121 -245 90 -120 251 -236 363 -259 98 -21 90 -24 182 70 47 48 91 93 98
101 37 40 179 248 227 334 162 288 230 522 230 790 0 177 -22 283 -83 405
-111 225 -332 390 -626 470 -118 31 -146 37 -291 54 -62 7 -419 13 -427 6z"/>
</g>
</svg>
